<svg width="100" height="auto" viewBox="0 0 166 111" fill="none" xmlns="http://www.w3.org/2000/svg">
<g clip-path="url(#clip0_176_4)">
<path d="M3.29 84.48C1.09 75.11 0 65.45 0 55.5C0 48.84 0.49 42.31 1.47 35.92C2.45 29.53 3.9 23.34 5.82 17.34C7.74 11.35 10.07 5.57 12.82 0H23.17C20.42 5.64 18.09 11.46 16.17 17.46C14.25 23.46 12.78 29.65 11.76 36.04C10.74 42.43 10.23 48.92 10.23 55.5C10.23 65.38 11.35 74.98 13.58 84.31C15.81 93.64 19.01 102.54 23.16 111H12.81C8.65 102.69 5.48 93.85 3.29 84.48Z" fill="#171717"/>
<path d="M42.4501 12.35C46.9201 21.05 52.0901 35.16 53.7401 43.63L45.8601 46.22C44.2101 37.99 39.2801 24 34.8101 14.83L42.4501 12.36V12.35ZM130.52 13.76C130.17 14.82 128.99 15.29 127.46 15.29C115.11 56.8 95.8301 82.19 59.0301 98.3C57.8501 96.65 55.1501 93.48 53.3901 91.83C89.3701 76.66 107.83 53.03 119.47 10.23L130.52 13.76ZM79.7301 5.65002C82.4301 15.41 85.3701 29.99 85.9601 39.04L77.6101 40.33C76.9001 31.04 74.3201 16.93 71.5001 7.06002L79.7301 5.65002Z" fill="#171717"/>
<path d="M161.8 26.52C163.99 35.89 165.09 45.55 165.09 55.5C165.09 62.16 164.6 68.69 163.62 75.08C162.64 81.47 161.19 87.66 159.27 93.66C157.35 99.66 155.02 105.44 152.27 111H141.92C144.66 105.36 146.99 99.54 148.92 93.54C150.84 87.54 152.31 81.35 153.33 74.96C154.35 68.57 154.86 62.08 154.86 55.5C154.86 45.62 153.74 36.02 151.51 26.69C149.27 17.36 146.08 8.46 141.93 0H152.28C156.43 8.31 159.61 17.15 161.8 26.52Z" fill="#171717"/>
</g>
<defs>
<clipPath id="clip0_176_4">
<rect width="165.09" height="111" fill="white"/>
</clipPath>
</defs>
</svg>
